<?xml version="1.0" standalone="no"?><!DOCTYPE svg PUBLIC "-//W3C//DTD SVG 1.1//EN" "http://www.w3.org/Graphics/SVG/1.1/DTD/svg11.dtd"><svg t="1737708286121" class="icon" viewBox="0 0 1024 1024" version="1.1" xmlns="http://www.w3.org/2000/svg" p-id="3030" xmlns:xlink="http://www.w3.org/1999/xlink" width="200" height="200"><path d="M880 471.36v236.48c0 41.28-13.12 81.6-39.36 120.96-26.24 39.36-64.64 71.36-115.2 96.32-50.56 24.64-110.72 37.12-180.48 37.12-84.8 0-157.44-18.56-217.92-55.68-60.48-37.12-105.92-89.6-136.64-157.44-31.04-68.16-46.4-147.2-46.4-237.12 0-89.28 15.04-168 45.12-235.84 29.76-67.84 73.28-120.64 129.92-158.08 56.64-37.44 123.52-56.32 200.96-56.32 86.4 0 160.32 23.36 222.4 70.4 61.76 47.04 103.36 108.16 124.48 184l-135.04 45.12c-10.56-53.12-34.24-96-71.04-127.68s-83.84-47.68-140.8-47.68c-76.48 0-134.08 28.48-172.8 85.44-38.72 56.96-57.92 136.96-57.92 240.64 0 217.6 85.12 326.4 255.36 326.4 60.8 0 111.36-15.36 151.36-45.76 40-30.4 60.16-83.84 60.16-160.32v-39.36h-177.92v-121.6h301.76z" p-id="3031" fill="#216BF0"></path></svg>